# xmcd
#
# Track frame offsets:
#	150
#	4287
#	21205
#	31745
#	37893
#	47935
#	62683
#	77242
#	85817
#	94881
#	106892
#	115721
#	126166
#	136652
#	149948
#	165477
#	174150
#	184438
#	193568
#	197779
#	203782
#	209779
#	215161
#	227910
#	239368
#	249128
#	260225
#	269453
#	283563
#	299011
#	312423
#
# Disc length: 4383 seconds
#
# Revision: 0
# Processed by: cddbd v1.5.1PL2 Copyright (c) Steve Scherf et al.
# Submitted via: EasyCDDAExtractor 8.2.1.1
#
DISCID=da111d1f
DTITLE=Various Artist - Blend City 16 (Ty Boogie)
DYEAR=1900
DGENRE=Rap
TTITLE0=Ty Boogie - Intro
TTITLE1=Mary J Blige - Be Without You b/w Like You - Grillz
TTITLE2=Jamie Foxx - Unpredictable b/w Grillz
TTITLE3=Twista and Trey Songz - Girl 2nite b/w Go DJ
TTITLE4=Bow Wow and Ciara - Like You b/w Unpredictable
TTITLE5=Beyonce and Slim Thug - Check Up On It b/w Fireman - I Think They Like M
TTITLE5=e
TTITLE6=Ne-Yo - So Sick b/w Juicy and Pimpin'
TTITLE7=Chris Brown - Yo (Excuse Me Miss) b/w Build You Up
TTITLE8=Ashanti and Paul Wall - Still On It b/w There It Go and Baby Girl
TTITLE9=Donell Jones and B.I.G. - Start Talking b/w Baby Girl
TTITLE10=T-Pain - I'm Sprung b/w Ready
TTITLE11=Ashanti - I Love Your b/w Can U Believe It - I'm Sprung
TTITLE12=Keisha Cole - I Want It 2 Be Over b/w Play and Clap Back
TTITLE13=Chris Brown and Juelz Santana - Run It b/w Special Delivery - So Seduct
TTITLE13=ive
TTITLE14=Ne-Yo and Peedi Crack - This Is How We Do - Conceited - Touch It
TTITLE15=Sean Paul - We Be Burning b/w Touch It
TTITLE16=Busta Rhymes - Touch It b/w Mona Lisa (Party Break)
TTITLE17=Remy Ma - Conceited b/w Oh No - Put Your Hands Up
TTITLE18=Pharell - Can I Have It Like That b/w Bring 'Em Out
TTITLE19=David Banner - Play b/w What It Is
TTITLE20=Tony Yayo - Pimpin' b/w Stay With Me
TTITLE21=Jay-Z - Diamonds Are 4 Ever (Remix), Jay-Z Verse b/w Stay With Me
TTITLE22=Young Jeezy and Jay-Z - Go Crazy (Remix) b/w Banned From TV
TTITLE23=Mobb Deep and 50 Cent - Have A Party b/w Let Me In
TTITLE24=50 Cent - Window Shopper b/w I'll Be Around
TTITLE25=Tony Yayo and Young Buck - I Know You Don't Love Me b/w Tell Me
TTITLE26=LiL' Kim - Lighter's Up b/w So Sick and Yo (Excuse Me Miss)
TTITLE27=Trey Songz - I Gotta Go b/w Be Your Side
TTITLE28=Mariah Carey and Jay-Z - Shake It Off (Remix) b/w Let Me Hold
TTITLE29=Mariah Carey, Bone Thugs and Juelz Santana - Don't 4get About Us (Remix
TTITLE29=) b/w Oh Yes
TTITLE30=T-Pain - I'm In Love With A Dancer b/w No Problem
EXTD=
EXTT0=
EXTT1=
EXTT2=
EXTT3=
EXTT4=
EXTT5=
EXTT6=
EXTT7=
EXTT8=
EXTT9=
EXTT10=
EXTT11=
EXTT12=
EXTT13=
EXTT14=
EXTT15=
EXTT16=
EXTT17=
EXTT18=
EXTT19=
EXTT20=
EXTT21=
EXTT22=
EXTT23=
EXTT24=
EXTT25=
EXTT26=
EXTT27=
EXTT28=
EXTT29=
EXTT30=
PLAYORDER=
